<svg width="60" height="60" viewBox="0 0 60 60" fill="none" xmlns="http://www.w3.org/2000/svg">
<circle cx="30" cy="30" r="30" fill="#39C0ED"/>
<path d="M40.9863 45H20.0244V42.0776L31.0986 29.7729C32.7393 27.9126 33.8672 26.4038 34.4824 25.2466C35.1123 24.0747 35.4272 22.8662 35.4272 21.6211C35.4272 19.9512 34.9219 18.5815 33.9111 17.5122C32.9004 16.4429 31.5527 15.9082 29.8682 15.9082C27.8467 15.9082 26.272 16.4868 25.144 17.644C24.0308 18.7866 23.4741 20.3833 23.4741 22.4341H19.4092C19.4092 19.4897 20.354 17.1094 22.2437 15.293C24.1479 13.4766 26.6895 12.5684 29.8682 12.5684C32.8418 12.5684 35.1929 13.3521 36.9214 14.9194C38.6499 16.4722 39.5142 18.5449 39.5142 21.1377C39.5142 24.2871 37.5073 28.0371 33.4937 32.3877L24.9243 41.6821H40.9863V45Z" fill="white"/>
</svg>
